<?xml version="1.0" standalone="no"?>
<!DOCTYPE svg PUBLIC "-//W3C//DTD SVG 20010904//EN"
 "http://www.w3.org/TR/2001/REC-SVG-20010904/DTD/svg10.dtd">
<svg version="1.0" xmlns="http://www.w3.org/2000/svg"
 width="700.000000pt" height="700.000000pt" viewBox="0 0 700.000000 700.000000"
 preserveAspectRatio="xMidYMid meet">
<metadata>
Created by potrace 1.14, written by Peter Selinger 2001-2017
</metadata>
<g transform="translate(0.000000,700.000000) scale(0.100000,-0.100000)"
fill="#000000" stroke="none">
<path d="M0 3500 l0 -3500 3500 0 3500 0 0 3500 0 3500 -3500 0 -3500 0 0
-3500z m6900 0 l0 -3400 -3400 0 -3400 0 0 3400 0 3400 3400 0 3400 0 0 -3400z"/>
<path d="M195 6798 c-3 -7 -4 -1496 -3 -3308 l3 -3295 3305 0 3305 0 0 3305 0
3305 -3303 3 c-2637 2 -3304 0 -3307 -10z m4523 -3303 l1212 -2425 -640 2
-641 3 -477 1016 c-262 559 -480 1015 -483 1013 -3 -2 -194 -421 -425 -931
l-419 -928 -60 -61 c-43 -43 -77 -68 -120 -85 l-60 -24 -768 -3 -767 -3 1212
2426 c667 1334 1215 2425 1218 2425 3 0 551 -1091 1218 -2425z"/>
<path d="M3041 4658 c-12 -13 -402 -780 -867 -1706 l-845 -1683 628 3 628 3
58 27 c34 16 80 50 110 81 50 51 68 89 465 971 l412 919 -225 683 c-192 582
-229 686 -252 703 -35 28 -85 27 -112 -1z"/>
</g>
</svg>
